<svg width="20" height="20" viewBox="0 0 20 20" fill="none" xmlns="http://www.w3.org/2000/svg">
<path fill-rule="evenodd" clip-rule="evenodd" d="M10 0C4.47715 0 0 4.47715 0 10C0 15.5228 4.47715 20 10 20C15.5228 20 20 15.5228 20 10C20 4.47715 15.5228 0 10 0ZM7.80135 4.69889C8.37025 4.673 8.55203 4.66667 10.0005 4.66667H9.99882C11.4477 4.66667 11.6288 4.673 12.1977 4.69889C12.7655 4.72489 13.1533 4.81478 13.4933 4.94667C13.8444 5.08278 14.1411 5.26501 14.4378 5.56168C14.7344 5.85812 14.9166 6.15568 15.0533 6.50646C15.1844 6.84558 15.2744 7.23314 15.3011 7.80092C15.3267 8.36981 15.3333 8.55159 15.3333 10.0001C15.3333 11.4485 15.3267 11.6298 15.3011 12.1987C15.2744 12.7663 15.1844 13.154 15.0533 13.4932C14.9166 13.8439 14.7344 14.1414 14.4378 14.4379C14.1414 14.7345 13.8443 14.9172 13.4936 15.0534C13.1543 15.1853 12.7663 15.2752 12.1985 15.3012C11.6296 15.3271 11.4484 15.3334 9.99982 15.3334C8.55147 15.3334 8.3698 15.3271 7.80091 15.3012C7.23324 15.2752 6.84557 15.1853 6.50623 15.0534C6.15567 14.9172 5.85811 14.7345 5.56177 14.4379C5.26522 14.1414 5.08299 13.8439 4.94666 13.4931C4.81488 13.154 4.72499 12.7664 4.69888 12.1986C4.6731 11.6297 4.66665 11.4485 4.66665 10.0001C4.66665 8.55159 4.67332 8.3697 4.69877 7.80081C4.72432 7.23325 4.81432 6.84558 4.94655 6.50635C5.08321 6.15568 5.26544 5.85812 5.56211 5.56168C5.85856 5.26512 6.15611 5.08289 6.5069 4.94667C6.84601 4.81478 7.23357 4.72489 7.80135 4.69889Z" fill="#FFFDFD"/>
<path fill-rule="evenodd" clip-rule="evenodd" d="M9.52175 5.6278C9.61465 5.62765 9.71459 5.6277 9.82244 5.62775L10.0002 5.6278C11.4242 5.6278 11.593 5.63291 12.1553 5.65847C12.6753 5.68224 12.9576 5.76913 13.1456 5.84213C13.3945 5.9388 13.5719 6.05436 13.7585 6.24103C13.9451 6.4277 14.0607 6.60548 14.1576 6.85437C14.2306 7.04215 14.3176 7.32437 14.3412 7.84438C14.3668 8.40661 14.3724 8.5755 14.3724 9.99884C14.3724 11.4222 14.3668 11.5911 14.3412 12.1533C14.3175 12.6733 14.2306 12.9555 14.1576 13.1433C14.0609 13.3922 13.9451 13.5694 13.7585 13.756C13.5718 13.9427 13.3946 14.0582 13.1456 14.1549C12.9578 14.2282 12.6753 14.3149 12.1553 14.3387C11.5931 14.3642 11.4242 14.3698 10.0002 14.3698C8.57607 14.3698 8.40729 14.3642 7.84506 14.3387C7.32506 14.3147 7.04283 14.2278 6.85472 14.1548C6.60583 14.0581 6.42805 13.9426 6.24138 13.7559C6.05471 13.5692 5.93916 13.3919 5.84227 13.1429C5.76926 12.9551 5.68226 12.6729 5.6586 12.1529C5.63304 11.5906 5.62793 11.4217 5.62793 9.99751C5.62793 8.57327 5.63304 8.40527 5.6586 7.84304C5.68237 7.32304 5.76926 7.04081 5.84227 6.85281C5.93893 6.60392 6.05471 6.42614 6.24138 6.23947C6.42805 6.0528 6.60583 5.93725 6.85472 5.84036C7.04272 5.76702 7.32506 5.68035 7.84506 5.65647C8.33707 5.63424 8.52774 5.62758 9.52175 5.62646V5.6278ZM12.8471 6.51336C12.4938 6.51336 12.2071 6.7997 12.2071 7.15315C12.2071 7.50648 12.4938 7.79315 12.8471 7.79315C13.2005 7.79315 13.4871 7.50648 13.4871 7.15315C13.4871 6.79981 13.2005 6.51314 12.8471 6.51314V6.51336ZM7.26129 10.0001C7.26129 8.48753 8.48758 7.26121 10.0001 7.26115C11.5127 7.26115 12.7387 8.48749 12.7387 10.0001C12.7387 11.5126 11.5128 12.7384 10.0002 12.7384C8.48764 12.7384 7.26129 11.5126 7.26129 10.0001Z" fill="#FFFDFD"/>
<path d="M10.0005 8.22229C10.9822 8.22229 11.7782 9.01819 11.7782 10.0001C11.7782 10.9819 10.9822 11.7779 10.0005 11.7779C9.01855 11.7779 8.22266 10.9819 8.22266 10.0001C8.22266 9.01819 9.01855 8.22229 10.0005 8.22229Z" fill="#FFFDFD"/>
</svg>
