<svg width="20" height="20" viewBox="0 0 20 20" fill="none" xmlns="http://www.w3.org/2000/svg">
<path fill-rule="evenodd" clip-rule="evenodd" d="M10 0C4.47715 0 0 4.47715 0 10C0 15.5228 4.47715 20 10 20C15.5228 20 20 15.5228 20 10C20 4.47715 15.5228 0 10 0ZM4.80103 8.28247H7.06724V15.0915H4.80103V8.28247ZM7.21623 6.17612C7.20152 5.5085 6.7241 5 5.94884 5C5.17359 5 4.66675 5.5085 4.66675 6.17612C4.66675 6.82992 5.15861 7.35306 5.91943 7.35306H5.93391C6.7241 7.35306 7.21623 6.82992 7.21623 6.17612ZM12.6307 8.12256C14.122 8.12256 15.24 9.09595 15.24 11.1874L15.2399 15.0915H12.9738V11.4487C12.9738 10.5336 12.6458 9.90927 11.8255 9.90927C11.1994 9.90927 10.8264 10.3302 10.6627 10.7367C10.6027 10.8824 10.588 11.0854 10.588 11.2889V15.0917H8.32153C8.32153 15.0917 8.3514 8.92155 8.32153 8.28263H10.588V9.24707C10.8888 8.78345 11.4275 8.12256 12.6307 8.12256Z" fill="#FFFDFD"/>
</svg>
