<svg width="24" height="24" viewBox="0 0 24 24" fill="none" xmlns="http://www.w3.org/2000/svg">
<path d="M21.5577 21.6876V21.6868H21.5625V14.581C21.5625 11.1048 20.8142 8.427 16.7502 8.427C14.7966 8.427 13.4855 9.49909 12.9503 10.5155H12.8938V8.75153H9.04059V21.6868H13.0528V15.2817C13.0528 13.5953 13.3725 11.9646 15.461 11.9646C17.5188 11.9646 17.5495 13.8891 17.5495 15.3899V21.6876H21.5577Z" fill="white"/>
<path d="M2.5072 8.7522H6.52429V21.6874H2.5072V8.7522Z" fill="white"/>
<path d="M4.51411 2.3125C3.22971 2.3125 2.1875 3.35471 2.1875 4.63911C2.1875 5.92352 3.22971 6.98753 4.51411 6.98753C5.79852 6.98753 6.84073 5.92352 6.84073 4.63911C6.83992 3.35471 5.79771 2.3125 4.51411 2.3125V2.3125Z" fill="white"/>
</svg>
