<svg width="35" height="35" viewBox="0 0 35 35" fill="none" xmlns="http://www.w3.org/2000/svg">
<path d="M0 17.5C0 7.83502 7.83502 0 17.5 0C27.165 0 35 7.83502 35 17.5C35 27.165 27.165 35 17.5 35C7.83502 35 0 27.165 0 17.5Z" fill="#FFFDFD"/>
<path d="M16.9759 13.9325L17.0126 14.5381L16.4006 14.4639C14.1727 14.1797 12.2264 13.2158 10.5739 11.5969L9.76599 10.7936L9.5579 11.3868C9.11723 12.7091 9.39877 14.1055 10.3168 15.0447C10.8065 15.5638 10.6963 15.6379 9.85168 15.329C9.5579 15.2301 9.30084 15.156 9.27636 15.193C9.19067 15.2795 9.48445 16.4041 9.71703 16.849C10.0353 17.4669 10.6841 18.0724 11.394 18.4308L11.9938 18.7151L11.2839 18.7274C10.5984 18.7274 10.5739 18.7398 10.6473 18.9993C10.8922 19.8026 11.8592 20.6553 12.9364 21.026L13.6953 21.2855L13.0343 21.681C12.055 22.2494 10.9044 22.5707 9.75375 22.5955C9.20291 22.6078 8.75 22.6572 8.75 22.6943C8.75 22.8179 10.2434 23.5099 11.1125 23.7818C13.7198 24.5851 16.8167 24.2391 19.1425 22.8673C20.795 21.8911 22.4476 19.9509 23.2187 18.0724C23.6349 17.0715 24.0511 15.2425 24.0511 14.3651C24.0511 13.7966 24.0878 13.7224 24.7733 13.0428C25.1773 12.6473 25.5567 12.2148 25.6302 12.0912C25.7526 11.8564 25.7404 11.8564 25.1161 12.0665C24.0756 12.4372 23.9287 12.3878 24.4428 11.8317C24.8223 11.4362 25.2752 10.7195 25.2752 10.5094C25.2752 10.4723 25.0916 10.5341 24.8835 10.6453C24.6632 10.7689 24.1735 10.9543 23.8063 11.0655L23.1453 11.2756L22.5455 10.8678C22.215 10.6453 21.7498 10.3982 21.505 10.324C20.8807 10.151 19.9259 10.1757 19.3628 10.3734C17.8327 10.9296 16.8657 12.3631 16.9759 13.9325Z" fill="#F69225"/>
</svg>
