<svg width="20" height="20" viewBox="0 0 20 20" fill="none" xmlns="http://www.w3.org/2000/svg">
<path d="M0 10C0 4.47715 4.47715 0 10 0C15.5228 0 20 4.47715 20 10C20 15.5228 15.5228 20 10 20C4.47715 20 0 15.5228 0 10Z" fill="#FFFDFD"/>
<path d="M9.7005 7.96144L9.72148 8.30746L9.37175 8.26509C8.09869 8.10267 6.98652 7.55186 6.04222 6.62678L5.58057 6.16777L5.46166 6.50673C5.20984 7.26233 5.37072 8.0603 5.89533 8.59699C6.17513 8.89358 6.11217 8.93595 5.62953 8.75941C5.46166 8.70292 5.31477 8.66055 5.30078 8.68173C5.25181 8.73116 5.41969 9.37378 5.55259 9.628C5.73445 9.98108 6.10518 10.3271 6.51088 10.5319L6.85362 10.6943L6.44792 10.7014C6.05621 10.7014 6.04222 10.7084 6.08419 10.8567C6.22409 11.3157 6.77668 11.803 7.39222 12.0148L7.8259 12.1631L7.44818 12.3891C6.88859 12.714 6.23108 12.8976 5.57357 12.9117C5.25881 12.9187 5 12.947 5 12.9682C5 13.0388 5.85336 13.4342 6.34999 13.5896C7.83989 14.0486 9.60957 13.8509 10.9386 13.067C11.8829 12.5092 12.8272 11.4005 13.2678 10.3271C13.5057 9.75511 13.7435 8.70998 13.7435 8.2086C13.7435 7.88376 13.7645 7.84139 14.1562 7.453C14.387 7.22702 14.6038 6.97986 14.6458 6.90925C14.7158 6.77508 14.7088 6.77508 14.352 6.89512C13.7575 7.10697 13.6735 7.07873 13.9673 6.76095C14.1842 6.53498 14.443 6.1254 14.443 6.00535C14.443 5.98417 14.338 6.01947 14.2191 6.08303C14.0932 6.15365 13.8134 6.25957 13.6036 6.32313L13.2259 6.44318L12.8831 6.21014C12.6943 6.08303 12.4285 5.9418 12.2886 5.89943C11.9318 5.80056 11.3862 5.81469 11.0645 5.92767C10.1901 6.24545 9.63755 7.0646 9.7005 7.96144Z" fill="#DA8524"/>
</svg>
